<svg xmlns="http://www.w3.org/2000/svg" viewBox="0 0 36 36">
  <defs>
    <linearGradient id="lidGradB" x1="0" y1="0" x2="1" y2="1">
      <stop offset="0%" stop-color="#f5b642"/>
      <stop offset="50%" stop-color="#f39c12"/>
      <stop offset="100%" stop-color="#e67e22"/>
    </linearGradient>
    <linearGradient id="frameGradB" x1="0" y1="0" x2="1" y2="1">
      <stop offset="0%" stop-color="#e67e22"/>
      <stop offset="100%" stop-color="#d35400"/>
    </linearGradient>
    <pattern id="hatchB" patternUnits="userSpaceOnUse" width="5" height="5" patternTransform="rotate(45)">
      <line x1="0" y1="0" x2="0" y2="5" stroke="#d68910" stroke-width="1" stroke-opacity="0.45"/>
    </pattern>
    <!-- 藍色光暈 filter -->
    <filter id="glowBlue" x="-30%" y="-30%" width="160%" height="160%">
      <feGaussianBlur stdDeviation="2.5" result="blur"/>
      <feFlood flood-color="#3498db" flood-opacity="0.85" result="color"/>
      <feComposite in="color" in2="blur" operator="in" result="glow"/>
      <feMerge>
        <feMergeNode in="glow"/>
        <feMergeNode in="SourceGraphic"/>
      </feMerge>
    </filter>
  </defs>

  <!-- 整體套用藍色光暈 -->
  <g filter="url(#glowBlue)">
    <rect x="2" y="2" width="32" height="32" rx="4"
          fill="url(#frameGradB)"
          stroke="#3498db" stroke-width="3"/>
    <rect x="5" y="5" width="26" height="26" rx="3"
          fill="url(#lidGradB)"/>
    <rect x="5" y="5" width="26" height="26" rx="3"
          fill="url(#hatchB)"/>
  </g>

  <!-- 清晰輪廓（蓋在光暈之上） -->
  <rect x="2" y="2" width="32" height="32" rx="4"
        fill="url(#frameGradB)"
        stroke="white" stroke-width="1.5"/>

  <!-- 立體邊緣 -->
  <path d="M4,4 L32,4" stroke="rgba(255,255,255,0.4)" stroke-width="1.2" stroke-linecap="round"/>
  <path d="M4,4 L4,32" stroke="rgba(255,255,255,0.4)" stroke-width="1.2" stroke-linecap="round"/>
  <path d="M4,32 L32,32" stroke="rgba(0,0,0,0.3)" stroke-width="1" stroke-linecap="round"/>
  <path d="M32,4 L32,32" stroke="rgba(0,0,0,0.3)" stroke-width="1" stroke-linecap="round"/>

  <!-- 蓋子 -->
  <rect x="5" y="5" width="26" height="26" rx="3"
        fill="url(#lidGradB)"/>
  <rect x="5" y="5" width="26" height="26" rx="3"
        fill="url(#hatchB)"/>

  <!-- 蓋子立體邊緣 -->
  <path d="M7,7 L29,7" stroke="rgba(255,255,255,0.5)" stroke-width="1" stroke-linecap="round"/>
  <path d="M7,7 L7,29" stroke="rgba(255,255,255,0.5)" stroke-width="1" stroke-linecap="round"/>
  <path d="M7,29 L29,29" stroke="rgba(0,0,0,0.25)" stroke-width="1" stroke-linecap="round"/>
  <path d="M29,7 L29,29" stroke="rgba(0,0,0,0.25)" stroke-width="1" stroke-linecap="round"/>

  <!-- 中央「H」符號 -->
  <rect x="12" y="12" width="3" height="12" rx="1" fill="#7d3c00" fill-opacity="0.75"/>
  <rect x="21" y="12" width="3" height="12" rx="1" fill="#7d3c00" fill-opacity="0.75"/>
  <rect x="12" y="16.5" width="12" height="3" rx="1" fill="#7d3c00" fill-opacity="0.75"/>
  <circle cx="18" cy="18" r="2.5"
          fill="#c57000" stroke="#7d3c00" stroke-width="1" stroke-opacity="0.6"/>
  <circle cx="18" cy="18" r="1" fill="#7d3c00" fill-opacity="0.5"/>
</svg>
